<?xml version="1.0" encoding="utf-8"?>
<!-- Generator: Adobe Illustrator 16.0.4, SVG Export Plug-In . SVG Version: 6.00 Build 0)  -->
<!DOCTYPE svg PUBLIC "-//W3C//DTD SVG 1.1//EN" "http://www.w3.org/Graphics/SVG/1.1/DTD/svg11.dtd">
<svg version="1.1" id="Layer_1" xmlns="http://www.w3.org/2000/svg" xmlns:xlink="http://www.w3.org/1999/xlink" x="0px" y="0px"
	 width="20px" height="30px" viewBox="0 0 20 30" enable-background="new 0 0 20 30" xml:space="preserve">
<g>
	<circle fill="none" stroke="#000000" stroke-linecap="round" stroke-miterlimit="10" cx="40.003" cy="4.879" r="3.439"/>
	<path fill="none" stroke="#000000" stroke-linecap="round" stroke-miterlimit="10" d="M33.814,16.538
		c0-3.417,2.771-6.188,6.188-6.188c3.416,0,6.188,2.771,6.188,6.188"/>
	
		<line fill="none" stroke="#000000" stroke-linecap="round" stroke-miterlimit="10" x1="40.003" y1="10.35" x2="40.003" y2="20.708"/>
	<path fill="none" stroke="#000000" stroke-linecap="round" stroke-miterlimit="10" d="M36.253,28.559v-1.662
		c0-3.418,0.738-6.188,3.75-6.188c3.013,0,3.75,2.771,3.75,6.188v1.662"/>
</g>
<path fill="#231F20" d="M13.971,10.572c-0.266-2.508-0.568-3.075-1.691-3.075c-0.446,0-0.798,0.132-1.029-0.122
	c-0.396-0.435-0.146-0.97,0.477-1.589c0.523-0.521,0.856-1.139,0.856-1.893c0-1.379-1.14-2.497-2.516-2.517V1.373
	c-0.006,0-0.012,0.002-0.018,0.002c-0.006,0-0.012-0.002-0.018-0.002v0.003c-1.376,0.02-2.516,1.137-2.516,2.517
	c0,0.754,0.333,1.373,0.856,1.893C8.994,6.405,9.244,6.94,8.849,7.375C8.617,7.629,8.266,7.497,7.819,7.497
	c-1.123,0-1.426,0.567-1.691,3.075c-0.353,3.289-0.942,5.883-0.262,6.866c0.502,0.728,1.649,0.53,1.649,0.53s0.92,8.429,1.032,9.337
	c0.11,0.88,0.3,1.294,1.452,1.317v0.005c0.019,0,0.031-0.002,0.049-0.002s0.031,0.002,0.049,0.002v-0.005
	c1.152-0.023,1.342-0.438,1.452-1.317c0.112-0.908,1.032-9.337,1.032-9.337s1.147,0.197,1.649-0.53
	C14.913,16.455,14.323,13.861,13.971,10.572z"/>
</svg>
