<svg xmlns="http://www.w3.org/2000/svg">

<symbol id="persona" viewBox="0 0 20 30" width="20px" height="30px">
	<path d="M13.971,10.572c-0.266-2.508-0.568-3.075-1.691-3.075c-0.446,0-0.798,0.132-1.029-0.122
	c-0.396-0.435-0.146-0.97,0.477-1.589c0.523-0.521,0.856-1.139,0.856-1.893c0-1.379-1.14-2.497-2.516-2.517V1.373
	c-0.006,0-0.012,0.002-0.018,0.002c-0.006,0-0.012-0.002-0.018-0.002v0.003c-1.376,0.02-2.516,1.137-2.516,2.517
	c0,0.754,0.333,1.373,0.856,1.893C8.994,6.405,9.244,6.94,8.849,7.375C8.617,7.629,8.266,7.497,7.819,7.497
	c-1.123,0-1.426,0.567-1.691,3.075c-0.353,3.289-0.942,5.883-0.262,6.866c0.502,0.728,1.649,0.53,1.649,0.53s0.92,8.429,1.032,9.337
	c0.11,0.88,0.3,1.294,1.452,1.317v0.005c0.019,0,0.031-0.002,0.049-0.002s0.031,0.002,0.049,0.002v-0.005
	c1.152-0.023,1.342-0.438,1.452-1.317c0.112-0.908,1.032-9.337,1.032-9.337s1.147,0.197,1.649-0.53
	C14.913,16.455,14.323,13.861,13.971,10.572z"/>
</symbol>

</svg>