<?xml version="1.0" encoding="utf-8"?>
<!-- Generator: Adobe Illustrator 16.0.4, SVG Export Plug-In . SVG Version: 6.00 Build 0)  -->
<!DOCTYPE svg PUBLIC "-//W3C//DTD SVG 1.1//EN" "http://www.w3.org/Graphics/SVG/1.1/DTD/svg11.dtd">
<svg version="1.1" id="Layer_1" xmlns="http://www.w3.org/2000/svg" xmlns:xlink="http://www.w3.org/1999/xlink" x="0px" y="0px"
	 width="20px" height="30px" viewBox="0 0 20 30" enable-background="new 0 0 20 30" xml:space="preserve">
<g>
	<circle fill="none" stroke="#000000" stroke-linecap="round" stroke-miterlimit="10" cx="40.003" cy="4.879" r="3.439"/>
	<path fill="none" stroke="#000000" stroke-linecap="round" stroke-miterlimit="10" d="M33.814,16.538
		c0-3.417,2.771-6.188,6.188-6.188c3.416,0,6.188,2.771,6.188,6.188"/>
	
		<line fill="none" stroke="#000000" stroke-linecap="round" stroke-miterlimit="10" x1="40.003" y1="10.35" x2="40.003" y2="20.708"/>
	<path fill="none" stroke="#000000" stroke-linecap="round" stroke-miterlimit="10" d="M36.253,28.559v-1.662
		c0-3.418,0.738-6.188,3.75-6.188c3.013,0,3.75,2.771,3.75,6.188v1.662"/>
</g>
<g>
	<path fill="#231F20" d="M13.971,10.572c-0.266-2.508-0.568-3.075-1.691-3.075c-0.855,0-2.279,0-2.279,0s-1.425,0-2.281,0
		c-1.121,0-1.423,0.567-1.691,3.075c-0.351,3.289-0.942,5.884-0.261,6.866c0.502,0.727,1.65,0.53,1.65,0.53s0.92,8.429,1.033,9.337
		c0.113,0.906,0.302,1.322,1.55,1.322s1.438-0.416,1.551-1.322c0.112-0.908,1.032-9.337,1.032-9.337s1.147,0.197,1.649-0.53
		C14.913,16.455,14.323,13.861,13.971,10.572z"/>
	<circle fill="#231F20" cx="10.063" cy="3.893" r="2.52"/>
</g>
</svg>
